<svg xmlns="http://www.w3.org/2000/svg" viewBox="0 0 256 256" role="img" aria-label="Concept 2: a cube whose front face is a web page">
  <!-- Concept 2: the cube is the browser: its front face is a web page (a title bar and text lines), its other faces glow. -->
  <rect width="256" height="256" rx="48" fill="#07051a"/>
  <polygon points="60,92 136,70 196,96 120,118" fill="#39e6ff"/>
  <polygon points="120,118 196,96 196,178 120,204" fill="#b43cff"/>
  <polygon points="60,92 120,118 120,204 60,176" fill="#f1ecff"/>
  <polygon points="60,92 120,118 120,130 60,104" fill="#16123a"/>
  <circle cx="67" cy="100" r="2.5" fill="#ff4fd8"/>
  <circle cx="75" cy="103.5" r="2.5" fill="#39e6ff"/>
  <line x1="68" y1="120" x2="110" y2="138" stroke="#aca3da" stroke-width="5" stroke-linecap="round"/>
  <line x1="68" y1="136" x2="104" y2="151.5" stroke="#aca3da" stroke-width="5" stroke-linecap="round"/>
  <line x1="68" y1="152" x2="110" y2="170" stroke="#aca3da" stroke-width="5" stroke-linecap="round"/>
  <line x1="68" y1="168" x2="96" y2="180" stroke="#aca3da" stroke-width="5" stroke-linecap="round"/>
  <polyline points="60,92 136,70 196,96 196,178 120,204 60,176 60,92 120,118 196,96" fill="none" stroke="#39e6ff" stroke-width="2.5" stroke-linejoin="round"/>
  <line x1="120" y1="118" x2="120" y2="204" stroke="#39e6ff" stroke-width="2.5"/>
</svg>
